<?xml version="1.0" standalone="no"?>
<!DOCTYPE svg PUBLIC "-//W3C//DTD SVG 20010904//EN"
 "http://www.w3.org/TR/2001/REC-SVG-20010904/DTD/svg10.dtd">
<svg version="1.0" xmlns="http://www.w3.org/2000/svg"
 width="1280.000000pt" height="1280.000000pt" viewBox="0 0 1280.000000 1280.000000"
 preserveAspectRatio="xMidYMid meet">
<g transform="translate(0.000000,1280.000000) scale(0.100000,-0.100000)"
fill="#000000" stroke="none">
<path d="M9247 9021 c-444 -201 -562 -264 -867 -465 -298 -197 -601 -431 -930
-720 -156 -136 -715 -696 -881 -881 -668 -745 -1273 -1569 -1799 -2445 -68
-113 -131 -214 -141 -224 -18 -19 -19 -19 -40 30 -306 704 -622 1154 -918
1307 -118 61 -163 72 -296 71 -109 -1 -141 -6 -356 -57 -321 -76 -438 -123
-653 -264 -206 -134 -326 -233 -326 -269 0 -33 25 -47 119 -66 108 -22 244
-88 343 -166 330 -263 633 -834 1132 -2139 140 -367 215 -589 256 -753 16 -68
36 -129 42 -136 28 -25 308 -273 386 -342 50 -44 91 -72 105 -72 15 0 61 39
147 126 178 179 314 303 586 531 132 110 244 206 250 214 6 8 22 46 34 84 49
151 156 442 255 690 499 1256 1184 2472 2040 3620 651 873 1320 1572 1967
2055 75 56 130 104 134 117 4 15 -14 70 -56 170 -68 161 -75 173 -99 173 -9 0
-204 -85 -434 -189z"/>
</g>
</svg>
